<?xml version="1.0" encoding="utf-8"?>
<!-- Generator: Adobe Illustrator 16.0.0, SVG Export Plug-In . SVG Version: 6.00 Build 0)  -->
<!DOCTYPE svg PUBLIC "-//W3C//DTD SVG 1.1//EN" "http://www.w3.org/Graphics/SVG/1.1/DTD/svg11.dtd">
<svg version="1.1" id="Layer_1" xmlns="http://www.w3.org/2000/svg" xmlns:xlink="http://www.w3.org/1999/xlink" x="0px" y="0px"
	 width="169px" height="40px" viewBox="0 0 169 40" enable-background="new 0 0 169 40" xml:space="preserve">
<g>
	<g>
		<path fill-rule="evenodd" clip-rule="evenodd" fill="#464648" d="M42.848,18.62c-0.544-1.791-1.42-3.445-2.561-4.891
			c-2.166,1.596-5-0.983-3.59-3.266c-1.464-0.954-3.114-1.655-4.887-2.054C32.339,12.4,38.5,16.8,38.5,24.003
			c0,12.187-19.999,12.081-19.999,0c0-4.604,2.35-7.67,4.754-10.794c1.224-1.596,2.899-3.275,3.414-5.053
			c-1.876,0.225-3.654,0.799-5.255,1.661c1.196,2.365-1.802,4.745-3.854,2.949c-1.264,1.343-2.282,2.916-2.977,4.653
			c2.434,1.051,1.689,4.78-1.043,4.725c-0.127,1.771,0.171,3.777,0.729,5.462c2.611-0.76,4.314,2.628,2.258,4.283
			c1.112,1.475,2.502,2.738,4.089,3.718c1.504-2.215,5.005-0.778,4.49,1.84c1.812,0.419,3.702,0.496,5.538,0.238
			c-0.289-2.652,3.325-3.791,4.632-1.454c1.67-0.844,3.159-1.986,4.398-3.359c-1.939-1.859,0.126-5.033,2.61-4.073
			c0.704-1.63,1.174-3.607,1.199-5.384C40.796,23.238,40.306,19.482,42.848,18.62L42.848,18.62z"/>
		<radialGradient id="SVGID_1_" cx="19.9316" cy="18.0039" r="11.1621" gradientUnits="userSpaceOnUse">
			<stop  offset="0" style="stop-color:#CDCFCF"/>
			<stop  offset="0.48" style="stop-color:#808184"/>
			<stop  offset="1" style="stop-color:#595A5C"/>
		</radialGradient>
		<path fill-rule="evenodd" clip-rule="evenodd" fill="url(#SVGID_1_)" d="M28.405,33.795c-2.734-0.026-5.288-0.886-7.203-2.432
			c-2.222-1.792-3.395-4.336-3.395-7.36c0-4.852,2.49-8.088,4.898-11.217c0.295-0.386,0.62-0.779,0.934-1.161
			c0.697-0.847,1.411-1.714,1.896-2.581c-1.127,0.234-2.217,0.605-3.254,1.108c0.211,0.803,0.089,1.638-0.359,2.366
			c-0.596,0.969-1.652,1.57-2.757,1.57l0,0c-0.527,0-1.037-0.137-1.501-0.401c-0.902,1.041-1.639,2.192-2.198,3.431
			c1.128,0.794,1.44,2.12,1.216,3.207c-0.228,1.1-1.071,2.209-2.475,2.461c-0.021,1.286,0.17,2.701,0.546,4.026
			c0.086-0.007,0.172-0.011,0.259-0.011c1.325,0,2.478,0.842,2.937,2.145c0.376,1.068,0.183,2.165-0.496,2.995
			c0.871,1.06,1.885,1.981,3.027,2.752c0.578-0.56,1.332-0.871,2.146-0.871c0.977,0,1.926,0.445,2.539,1.189
			c0.441,0.538,0.677,1.188,0.686,1.881c0.837,0.157,1.693,0.237,2.552,0.245C28.44,36.022,28.454,34.908,28.405,33.795z"/>
		<radialGradient id="SVGID_2_" cx="38.7124" cy="13.4756" r="12.6852" gradientUnits="userSpaceOnUse">
			<stop  offset="0" style="stop-color:#CDCFCF"/>
			<stop  offset="0.48" style="stop-color:#808184"/>
			<stop  offset="1" style="stop-color:#595A5C"/>
		</radialGradient>
		<path fill-rule="evenodd" clip-rule="evenodd" fill="url(#SVGID_2_)" d="M40.517,21.364c-0.146-1.105,0.272-2.413,1.479-3.116
			c-0.452-1.286-1.085-2.497-1.892-3.609c-0.402,0.184-0.831,0.28-1.266,0.28c0,0,0,0,0,0c-1.141,0-2.247-0.665-2.82-1.692
			c-0.442-0.793-0.513-1.676-0.214-2.502c-0.949-0.562-1.962-1.01-3.026-1.339c0.432,1.146,1.263,2.39,2.193,3.777
			c1.881,2.811,4.222,6.308,4.222,10.841c0,6.729-5.525,9.795-10.66,9.795c0,0-0.001,0-0.002,0c-0.042,0-0.083-0.002-0.126-0.003
			c0.048,1.113,0.035,2.228-0.001,3.343c0.039,0,0.077,0.002,0.116,0.002c0.477,0,0.956-0.023,1.432-0.071
			c0.065-0.645,0.323-1.238,0.754-1.721c0.606-0.674,1.521-1.078,2.45-1.078c0.927,0,1.75,0.38,2.337,1.061
			c1.2-0.67,2.291-1.502,3.256-2.485c-0.574-0.846-0.695-1.899-0.301-2.88c0.49-1.218,1.665-2.037,2.923-2.037
			c0.168,0,0.336,0.013,0.503,0.041c0.491-1.288,0.805-2.685,0.893-3.972C41.409,23.632,40.663,22.474,40.517,21.364z"/>
		<linearGradient id="SVGID_3_" gradientUnits="userSpaceOnUse" x1="25.8779" y1="29.3975" x2="17.1229" y2="11.8874">
			<stop  offset="0" style="stop-color:#CDCFCF"/>
			<stop  offset="0.48" style="stop-color:#808184"/>
			<stop  offset="1" style="stop-color:#595A5C"/>
		</linearGradient>
		<path fill-rule="evenodd" clip-rule="evenodd" fill="url(#SVGID_3_)" d="M14.207,22.786c-0.021,1.286,0.17,2.701,0.546,4.026
			c0.086-0.007,0.172-0.011,0.259-0.011c0.13,0,0.257,0.011,0.383,0.025c0.866-0.277,1.731-0.559,2.595-0.846
			c-0.12-0.633-0.183-1.293-0.183-1.979c0-4.852,2.49-8.088,4.898-11.217c0.295-0.386,0.62-0.779,0.934-1.161
			c0.697-0.847,1.411-1.714,1.896-2.581c-1.127,0.234-2.217,0.605-3.254,1.108c0.211,0.803,0.089,1.638-0.359,2.366
			c-0.596,0.969-1.652,1.57-2.757,1.57l0,0c-0.527,0-1.037-0.137-1.501-0.401c-0.902,1.041-1.639,2.192-2.198,3.431
			c1.128,0.794,1.44,2.12,1.216,3.207C16.454,21.425,15.611,22.534,14.207,22.786z"/>
		<linearGradient id="SVGID_4_" gradientUnits="userSpaceOnUse" x1="41.3477" y1="21.6611" x2="32.5932" y2="4.1523">
			<stop  offset="0" style="stop-color:#CDCFCF"/>
			<stop  offset="0.48" style="stop-color:#808184"/>
			<stop  offset="1" style="stop-color:#595A5C"/>
		</linearGradient>
		<path fill-rule="evenodd" clip-rule="evenodd" fill="url(#SVGID_4_)" d="M38.025,18.482c1.164-0.473,2.327-0.949,3.487-1.428
			c-0.387-0.846-0.856-1.654-1.407-2.416c-0.402,0.184-0.831,0.28-1.266,0.28c0,0,0,0,0,0c-1.141,0-2.247-0.665-2.82-1.692
			c-0.442-0.793-0.513-1.676-0.214-2.502c-0.949-0.562-1.962-1.01-3.026-1.339c0.432,1.146,1.263,2.39,2.193,3.777
			C36.005,14.708,37.178,16.463,38.025,18.482z"/>
		<radialGradient id="SVGID_5_" cx="41.9385" cy="16.7485" r="9.5784" gradientUnits="userSpaceOnUse">
			<stop  offset="0" style="stop-color:#FFFFFF"/>
			<stop  offset="0.34" style="stop-color:#BBBDBF"/>
			<stop  offset="0.635" style="stop-color:#808184"/>
			<stop  offset="1" style="stop-color:#595A5C"/>
		</radialGradient>
		<path fill="url(#SVGID_5_)" d="M42.382,23.744c-1.118-0.484-1.644-1.557-1.754-2.395c-0.123-0.931,0.177-2.276,1.425-3.004
			c0.076-0.044,0.079-0.05,0.049-0.135c-0.454-1.293-1.096-2.518-1.906-3.637c-0.049-0.068-0.062-0.071-0.138-0.036
			c-0.391,0.179-0.801,0.269-1.22,0.269c-1.1,0-2.167-0.641-2.722-1.634c-0.421-0.754-0.495-1.61-0.207-2.409
			c0.028-0.078,0.022-0.093-0.049-0.135c-0.953-0.564-1.979-1.019-3.048-1.35c-0.201-0.063-0.208-0.038-0.139,0.147
			c0,0.001,0.001,0.003,0.002,0.005c0.125,0.043,0.244,0.087,0.346,0.152c0.924,0.308,1.813,0.707,2.646,1.192
			c-0.273,0.836-0.185,1.722,0.252,2.506c0.593,1.063,1.739,1.75,2.919,1.75c0.421,0,0.833-0.085,1.228-0.252
			c0.756,1.057,1.358,2.207,1.793,3.42c-1.275,0.794-1.583,2.201-1.455,3.181c0.13,0.983,0.794,2.268,2.242,2.7
			c-0.094,1.218-0.393,2.546-0.848,3.765c-0.143-0.021-0.288-0.03-0.43-0.03c-1.304,0-2.52,0.847-3.027,2.107
			c-0.394,0.979-0.297,2.034,0.261,2.909c-0.918,0.925-1.956,1.717-3.087,2.356c-0.607-0.666-1.442-1.03-2.361-1.03
			c-0.959,0-1.906,0.417-2.533,1.116c-0.425,0.474-0.69,1.056-0.772,1.691c-0.611,0.056-1.225,0.071-1.837,0.052
			c0,0.074-0.001,0.149-0.003,0.223c0.17,0.007,0.34,0.012,0.511,0.012c0.479,0,0.964-0.023,1.443-0.069
			c0.088-0.01,0.093-0.013,0.101-0.102c0.063-0.623,0.313-1.196,0.726-1.656c0.584-0.651,1.469-1.041,2.365-1.041
			c0.884,0,1.684,0.362,2.252,1.021c0.058,0.068,0.064,0.068,0.14,0.025c1.207-0.673,2.311-1.515,3.281-2.507
			c0.063-0.063,0.063-0.067,0.013-0.141c-0.562-0.826-0.666-1.837-0.29-2.775c0.473-1.175,1.605-1.967,2.818-1.967
			c0.161,0,0.576,0.056,0.576,0.056c0.529-0.953,0.949-3.06,0.939-4.183C42.884,23.912,42.512,23.802,42.382,23.744z"/>
		<radialGradient id="SVGID_6_" cx="18.7373" cy="19.3564" r="11.7003" gradientUnits="userSpaceOnUse">
			<stop  offset="0" style="stop-color:#FFFFFF"/>
			<stop  offset="0.34" style="stop-color:#BBBDBF"/>
			<stop  offset="0.635" style="stop-color:#808184"/>
			<stop  offset="1" style="stop-color:#595A5C"/>
		</radialGradient>
		<path fill="url(#SVGID_6_)" d="M23.552,11.553c-0.314,0.382-0.638,0.776-0.936,1.164c-2.42,3.144-4.921,6.396-4.921,11.286
			c0,3.059,1.188,5.634,3.437,7.449c1.839,1.483,4.259,2.343,6.864,2.447c-0.003-0.076-0.008-0.15-0.013-0.227
			c-2.547-0.105-4.912-0.947-6.708-2.396c-2.194-1.771-3.353-4.284-3.353-7.273c0-4.813,2.478-8.034,4.875-11.148
			c0.955-1.242,2.069-2.38,2.837-3.755c0-0.094,0.039-0.163-0.023-0.174c-0.138,0.14-0.265,0.289-0.39,0.426
			C24.755,10.09,24.146,10.832,23.552,11.553z"/>
		<radialGradient id="SVGID_7_" cx="17.4639" cy="29.0674" r="9.3843" gradientUnits="userSpaceOnUse">
			<stop  offset="0" style="stop-color:#FFFFFF"/>
			<stop  offset="0.34" style="stop-color:#BBBDBF"/>
			<stop  offset="0.635" style="stop-color:#808184"/>
			<stop  offset="1" style="stop-color:#595A5C"/>
		</radialGradient>
		<path fill="url(#SVGID_7_)" d="M25.962,36.798c-0.028-0.686-0.272-1.326-0.71-1.857c-0.633-0.771-1.615-1.23-2.625-1.23
			c-0.803,0-1.566,0.298-2.158,0.839c-1.076-0.736-2.041-1.612-2.87-2.607c0.666-0.864,0.833-1.965,0.456-3.032
			c-0.495-1.405-1.779-2.296-3.219-2.214c-0.345-1.252-0.528-2.6-0.518-3.816c1.501-0.311,2.271-1.551,2.474-2.531
			c0.198-0.96,0.002-2.378-1.186-3.266c0.537-1.168,1.237-2.262,2.083-3.251c0.462,0.247,0.958,0.372,1.476,0.372
			c1.144,0,2.238-0.623,2.853-1.624c0.442-0.719,0.582-1.555,0.395-2.364c0.924-0.44,1.897-0.778,2.896-1.005
			c-0.029,0.047-0.06,0.094-0.09,0.142c0.125-0.137,0.252-0.286,0.39-0.426c-0.021-0.003-0.051-0.001-0.098,0.008
			c-1.133,0.236-2.237,0.612-3.28,1.117c-0.081,0.04-0.083,0.043-0.059,0.13c0.299,1.133-0.142,2.289-1.006,3.048
			c-0.94,0.826-2.356,0.981-3.448,0.36c-0.068-0.039-0.092-0.032-0.141,0.024c-0.908,1.047-1.653,2.211-2.216,3.458
			c-0.033,0.076-0.03,0.091,0.039,0.139c1.166,0.821,1.359,2.177,1.171,3.09c-0.193,0.933-0.934,2.114-2.384,2.374
			c-0.083,0.016-0.091,0.023-0.093,0.109c-0.021,1.29,0.174,2.731,0.55,4.06c0.025,0.085,0.028,0.09,0.118,0.081
			c1.371-0.111,2.608,0.721,3.081,2.06c0.36,1.021,0.187,2.075-0.476,2.887c-0.054,0.067-0.056,0.074,0.001,0.143
			c0.875,1.065,1.901,1.997,3.051,2.772c0.071,0.049,0.079,0.048,0.141-0.013c0.558-0.54,1.292-0.838,2.067-0.838
			c0.943,0,1.86,0.428,2.452,1.147c0.423,0.515,0.651,1.14,0.66,1.813c0.001,0.09,0.003,0.092,0.091,0.108
			c0.715,0.134,1.446,0.211,2.179,0.235c0.001-0.073,0.002-0.148,0.003-0.223C27.322,36.991,26.636,36.92,25.962,36.798z"/>
		<radialGradient id="SVGID_8_" cx="38.8726" cy="26.3604" r="11.5934" gradientUnits="userSpaceOnUse">
			<stop  offset="0" style="stop-color:#FFFFFF"/>
			<stop  offset="0.34" style="stop-color:#BBBDBF"/>
			<stop  offset="0.635" style="stop-color:#808184"/>
			<stop  offset="1" style="stop-color:#595A5C"/>
		</radialGradient>
		<path fill="url(#SVGID_8_)" d="M28.534,33.91c5.188,0,10.772-3.102,10.772-9.907c0-4.567-2.352-8.081-4.244-10.906
			c-0.88-1.314-1.648-2.46-2.092-3.531c0.017,0.005,0.034,0.012,0.05,0.017c-0.102-0.065-0.22-0.109-0.346-0.152
			c0.436,1.156,1.253,2.378,2.202,3.794c1.873,2.798,4.204,6.28,4.204,10.778c0,6.651-5.467,9.681-10.549,9.683
			c-0.184,0-0.367-0.006-0.55-0.013c0.005,0.076,0.01,0.15,0.013,0.227C28.174,33.906,28.353,33.91,28.534,33.91z"/>
		<radialGradient id="SVGID_9_" cx="27.811" cy="16.5986" r="9.7908" gradientUnits="userSpaceOnUse">
			<stop  offset="0" style="stop-color:#F8EB32"/>
			<stop  offset="0.48" style="stop-color:#F69321"/>
			<stop  offset="0.74" style="stop-color:#E27126"/>
			<stop  offset="1" style="stop-color:#C74C27"/>
		</radialGradient>
		<path fill-rule="evenodd" clip-rule="evenodd" fill="url(#SVGID_9_)" d="M29.181,4.029c-0.563,8.426-9.293,11.89-9.293,20.072
			c0,10.343,17.231,10.323,17.231,0C37.118,17.063,29.818,12.196,29.181,4.029L29.181,4.029z"/>
		<radialGradient id="SVGID_10_" cx="29.561" cy="15.3311" r="10.9261" gradientUnits="userSpaceOnUse">
			<stop  offset="0" style="stop-color:#F8EB32"/>
			<stop  offset="0.48" style="stop-color:#F69321"/>
			<stop  offset="1" style="stop-color:#CE5027"/>
		</radialGradient>
		<path fill-rule="evenodd" clip-rule="evenodd" fill="url(#SVGID_10_)" d="M28.179,31.28c-3.1,0-6.581-2.525-6.581-6.87
			c0-5.676,6.005-10.91,7.405-16.42c0.677,2.634,2.392,5.038,3.538,7.628c1.882,4.251,3.66,8.268,2.492,10.927
			C33.713,29.553,30.978,31.28,28.179,31.28L28.179,31.28z"/>
		<linearGradient id="SVGID_11_" gradientUnits="userSpaceOnUse" x1="27.9165" y1="21.9834" x2="26.5636" y2="12.2743">
			<stop  offset="0" style="stop-color:#F8EB32"/>
			<stop  offset="0.48" style="stop-color:#F69321"/>
			<stop  offset="1" style="stop-color:#CE5027"/>
		</linearGradient>
		<path opacity="0.6" fill-rule="evenodd" clip-rule="evenodd" fill="url(#SVGID_11_)" d="M33.84,18.386
			c-0.402-0.979-4.159-7.762-4.836-10.396c-1.938,6.413-7.295,10.748-7.295,15.561C25.747,23.912,29.846,19.275,33.84,18.386z"/>
		<g>
			
				<radialGradient id="SVGID_12_" cx="42.583" cy="20.6655" r="5.3128" gradientTransform="matrix(1.0323 0 0 1 -9.3428 0)" gradientUnits="userSpaceOnUse">
				<stop  offset="0" style="stop-color:#F8EB32"/>
				<stop  offset="0.48" style="stop-color:#F69321"/>
				<stop  offset="1" style="stop-color:#CE5027"/>
			</radialGradient>
			<path fill="url(#SVGID_12_)" d="M33.735,27.519c-0.208,0.022-0.41-0.056-0.467-0.314c-0.049-0.226,0.162-0.528,0.331-0.772
				c1.504-2.163,0.92-4.818,0.094-7.111c-0.587-1.629-1.148-3.468-1.627-4.874c0.918,2.271,2.027,4.339,2.775,6.644
				c0.577,1.775,0.643,3.702-0.194,5.414C34.459,26.89,34.267,27.46,33.735,27.519z"/>
		</g>
	</g>
	<polygon fill-rule="evenodd" clip-rule="evenodd" fill="#FFFFFF" points="33.704,18.004 34.856,17.7 33.862,18.358 34.167,19.511 
		33.508,18.517 32.355,18.822 33.351,18.164 33.045,17.01 	"/>
</g>
<text transform="matrix(1 0 0 1 51.8335 32.834)" font-family="'NexaLight'" font-size="26">COCIS</text>
<text transform="matrix(1 0 0 1 129.834 9.4307)" fill="#3E4DA0" font-family="'NexaBold'" font-size="9">VER 1.1.0</text>
</svg>
